<svg width="27" height="27" viewBox="0 0 27 27" fill="none" xmlns="http://www.w3.org/2000/svg">
<path d="M24.2009 25.7522H2.79978C2.12309 25.7522 1.57275 25.1976 1.57275 24.5161V15.54H2.4165V24.5161C2.4165 24.7323 2.58842 24.9084 2.79978 24.9084H24.2009C24.4122 24.9084 24.5843 24.7323 24.5843 24.5161V15.54H25.4281V24.5161C25.4283 25.1976 24.8778 25.7522 24.2009 25.7522Z" fill="#282D33"/>
<path d="M19.0708 9.49414H7.94385V10.3379H19.0708V9.49414Z" fill="#282D33"/>
<path d="M25.7728 14.4423H1.2266C0.550336 14.4423 0 13.8878 0 13.2062V10.7298C0 10.0485 0.550125 9.49414 1.2266 9.49414H5.08022V10.3379H1.2266C1.01545 10.3379 0.84375 10.5138 0.84375 10.7298V13.2062C0.84375 13.4224 1.01545 13.5984 1.2266 13.5984H25.7726C25.9839 13.5984 26.156 13.4224 26.156 13.2062V10.7298C26.156 10.5138 25.9839 10.3379 25.7726 10.3379H22.1347V9.49414H25.7726C26.4495 9.49414 26.9998 10.0485 26.9998 10.7298V13.2062C27 13.8878 26.4497 14.4423 25.7728 14.4423Z" fill="#282D33"/>
<path d="M5.69955 12.5599C5.3764 12.5599 5.06569 12.4561 4.80117 12.2595C4.13756 11.7619 3.99982 10.8117 4.49299 10.1398L10.6129 1.85948C10.8954 1.47705 11.3474 1.24902 11.8218 1.24902C12.1488 1.24902 12.4601 1.35302 12.7223 1.55003C13.384 2.04805 13.522 2.99812 13.0298 3.66805L6.90801 11.948C6.62662 12.3308 6.17458 12.5599 5.69955 12.5599ZM11.8218 2.09298C11.6109 2.09298 11.4174 2.19065 11.2915 2.36109L5.17242 10.6404C4.95262 10.9395 5.01232 11.3631 5.30594 11.5833C5.59472 11.7978 6.02102 11.7297 6.2288 11.447L12.3504 3.16771C12.5694 2.86945 12.509 2.44567 12.215 2.2244C12.1005 2.13855 11.9644 2.09298 11.8218 2.09298Z" fill="#282D33"/>
<path d="M21.2989 12.5597C20.8247 12.5597 20.373 12.3306 20.0908 11.9471L13.97 3.66932C13.4773 2.99833 13.6157 2.04805 14.2782 1.55024C14.5394 1.35323 14.8509 1.24902 15.1781 1.24902C15.6527 1.24902 16.1047 1.47726 16.3868 1.8599L22.5039 10.1388C22.9992 10.8104 22.8619 11.7609 22.1979 12.2585C21.9348 12.4555 21.6239 12.5597 21.2989 12.5597ZM15.1779 2.09277C15.0353 2.09277 14.8999 2.13813 14.7857 2.22419C14.4908 2.44609 14.4297 2.86966 14.6495 3.16877L20.7705 11.4464C20.9797 11.7311 21.4058 11.7978 21.692 11.5831C21.9865 11.3624 22.0464 10.9393 21.8251 10.6398L15.708 2.36066C15.582 2.19023 15.3888 2.09277 15.1779 2.09277Z" fill="#282D33"/>
<path d="M4.84473 15.6289H4.00098V23.434H4.84473V15.6289Z" fill="#282D33"/>
<path d="M7.42139 15.6289H6.57764V23.434H7.42139V15.6289Z" fill="#282D33"/>
<path d="M9.99707 15.6289H9.15332V23.434H9.99707V15.6289Z" fill="#282D33"/>
<path d="M12.5728 15.6289H11.729V23.434H12.5728V15.6289Z" fill="#282D33"/>
<path d="M15.1484 15.6289H14.3047V23.434H15.1484V15.6289Z" fill="#282D33"/>
<path d="M17.7241 15.6289H16.8804V23.434H17.7241V15.6289Z" fill="#282D33"/>
<path d="M20.3003 15.6289H19.4565V23.434H20.3003V15.6289Z" fill="#282D33"/>
<path d="M22.876 15.6289H22.0322V23.434H22.876V15.6289Z" fill="#282D33"/>
</svg>
