<svg width="64" height="65" viewBox="0 0 64 65" fill="none" xmlns="http://www.w3.org/2000/svg">
<g id="reshot-icon-piece-of-cake-W8ULH3S7QZ 1">
<path id="Vector" d="M32.6666 52.9723C46.7813 52.9723 58.2236 48.5345 58.2236 43.0602V40.313H7.10962V43.0602C7.10962 48.5345 18.5519 52.9723 32.6666 52.9723Z" fill="#B2D180"/>
<path id="Vector_2" fill-rule="evenodd" clip-rule="evenodd" d="M5.77637 40.3129C5.77637 39.5727 6.37332 38.9727 7.10973 38.9727H58.2237C58.9601 38.9727 59.5571 39.5727 59.5571 40.3129V43.0601C59.5571 44.9344 58.5725 46.571 57.1139 47.9084C55.6561 49.2453 53.6206 50.3876 51.2183 51.3194C46.4047 53.1862 39.8454 54.3124 32.6667 54.3124C25.4881 54.3124 18.9287 53.1862 14.1152 51.3194C11.7129 50.3876 9.6774 49.2453 8.21947 47.9084C6.761 46.571 5.77637 44.9344 5.77637 43.0601V40.3129ZM58.2237 43.0601C58.2237 48.5344 46.7815 52.9722 32.6667 52.9722C18.552 52.9722 7.10973 48.5344 7.10973 43.0601V40.3129H58.2237V43.0601Z" fill="#9EB17D"/>
<path id="Vector_3" d="M58.2236 40.6841C58.2236 46.1584 46.7813 50.5962 32.6666 50.5962C18.5519 50.5962 7.10962 46.1584 7.10962 40.6841C7.10962 35.2098 18.5519 30.772 32.6666 30.772C46.7813 30.772 58.2236 35.2098 58.2236 40.6841Z" fill="#D5EAB4"/>
<path id="Vector_4" fill-rule="evenodd" clip-rule="evenodd" d="M51.2183 48.9432C46.4047 50.8101 39.8454 51.9363 32.6667 51.9363C25.4881 51.9363 18.9287 50.8101 14.1152 48.9432C11.7129 48.0115 9.6774 46.8691 8.21947 45.5323C6.761 44.195 5.77637 42.5584 5.77637 40.6839C5.77637 38.8096 6.761 37.173 8.21947 35.8356C9.6774 34.4988 11.7129 33.3564 14.1152 32.4247C18.9287 30.5578 25.4881 29.4316 32.6667 29.4316C39.8454 29.4316 46.4047 30.5578 51.2183 32.4247C53.6206 33.3564 55.6561 34.4988 57.1139 35.8356C58.5725 37.173 59.5571 38.8096 59.5571 40.6839C59.5571 42.5584 58.5725 44.195 57.1139 45.5323C55.6561 46.8691 53.6206 48.0115 51.2183 48.9432ZM32.6667 50.5961C46.7815 50.5961 58.2237 46.1583 58.2237 40.6839C58.2237 35.2097 46.7815 30.7718 32.6667 30.7718C18.552 30.7718 7.10973 35.2097 7.10973 40.6839C7.10973 46.1583 18.552 50.5961 32.6667 50.5961Z" fill="#9EB27D"/>
<path id="Vector_5" fill-rule="evenodd" clip-rule="evenodd" d="M10.0499 43.4912C10.2823 43.2042 10.7022 43.161 10.9877 43.3946C12.1319 44.331 15.8749 46.5291 21.2599 47.3729C21.6237 47.4299 21.8727 47.7725 21.8159 48.1382C21.7593 48.5039 21.4183 48.7541 21.0545 48.6972C15.4466 47.8184 11.4816 45.527 10.1459 44.4339C9.86039 44.2002 9.81739 43.7781 10.0499 43.4912Z" fill="#ECFDFF"/>
<path id="Vector_6" d="M35.6667 15.3628L16.5056 24.9955L51.4167 22.5455C48.7213 17.3659 38.5074 15.5288 35.6667 15.3628Z" fill="#EAB270"/>
<path id="Vector_7" fill-rule="evenodd" clip-rule="evenodd" d="M15.2194 25.3486C15.0518 24.7322 15.3406 24.0825 15.9092 23.7967L35.0702 14.164C35.2788 14.0592 35.5112 14.0111 35.744 14.0247C37.2842 14.1147 40.6684 14.6389 44.0317 15.8073C47.3164 16.9483 50.9944 18.8424 52.5981 21.9242C52.8066 22.3249 52.8 22.8043 52.5806 23.1991C52.3611 23.5939 51.9584 23.8508 51.5095 23.8823L16.5984 26.3323C15.9642 26.3768 15.387 25.965 15.2194 25.3486ZM16.5056 24.9953L51.4166 22.5453C51.1811 22.0927 50.8881 21.6656 50.5476 21.2628C46.9923 17.0575 38.2591 15.5142 35.6666 15.3626L16.5056 24.9953Z" fill="#833C09"/>
<path id="Vector_8" d="M16.5056 42.4183V25.582L51.5 22.9854V38.5653L16.5056 42.4183Z" fill="#D59D5C"/>
<path id="Vector_9" fill-rule="evenodd" clip-rule="evenodd" d="M15.1724 25.5818C15.1724 24.88 15.7112 24.297 16.4076 24.2453L51.402 21.6487C51.7716 21.6212 52.136 21.7497 52.4076 22.0033C52.6791 22.2569 52.8334 22.6126 52.8334 22.9852V38.5651C52.8334 39.2488 52.3214 39.8229 51.6453 39.8973L16.6509 43.7504C16.2742 43.7919 15.8978 43.6703 15.6157 43.4162C15.3336 43.1619 15.1724 42.7991 15.1724 42.4182V25.5818ZM16.5057 42.4182L51.5001 38.5651V22.9852L16.5057 25.5818V42.4182Z" fill="#63310D"/>
<path id="Vector_10" d="M16.5056 42.4183V25.582L51.5 22.9854V38.5653L16.5056 42.4183Z" fill="#BA874C"/>
<path id="Vector_11" d="M16.5056 42.4183V25.582L51.5 22.9854C34.7667 25.7998 21.1982 37.1134 16.5056 42.4183Z" fill="#A9773C"/>
<path id="Vector_12" fill-rule="evenodd" clip-rule="evenodd" d="M28.2899 26.0782C28.3162 26.4474 28.0399 26.7681 27.6726 26.7946L17.7976 27.5066C17.4304 27.533 17.1113 27.2553 17.085 26.8861C17.0586 26.517 17.335 26.1963 17.7023 26.1698L27.5773 25.4578C27.9445 25.4313 28.2635 25.7092 28.2899 26.0782Z" fill="#CC914C"/>
<path id="Vector_13" d="M16.5056 36.8689V30.6495L51.5 28.0947V34L16.5056 36.8689Z" fill="#7F4D14"/>
<path id="Vector_14" d="M44.6181 18.6298C44.6181 19.5666 41.9839 20.326 38.7345 20.326C35.485 20.326 32.8508 19.5666 32.8508 18.6298C32.8508 17.693 35.485 16.9336 38.7345 16.9336C41.9839 16.9336 44.6181 17.693 44.6181 18.6298Z" fill="#C48A46"/>
<path id="Vector_15" d="M47.7655 36.4361C47.7655 37.0105 47.3022 37.4761 46.7308 37.4761C46.1593 37.4761 45.696 37.0105 45.696 36.4361C45.696 35.8617 46.1593 35.396 46.7308 35.396C47.3022 35.396 47.7655 35.8617 47.7655 36.4361Z" fill="#6C3D07"/>
<path id="Vector_16" d="M49.7916 35.0926C49.7916 35.5234 49.4442 35.8726 49.0156 35.8726C48.587 35.8726 48.2395 35.5234 48.2395 35.0926C48.2395 34.6618 48.587 34.3125 49.0156 34.3125C49.4442 34.3125 49.7916 34.6618 49.7916 35.0926Z" fill="#6C3D07"/>
<path id="Vector_17" d="M46.6444 33.576C46.6444 34.0068 46.297 34.356 45.8684 34.356C45.4398 34.356 45.0923 34.0068 45.0923 33.576C45.0923 33.1452 45.4398 32.7959 45.8684 32.7959C46.297 32.7959 46.6444 33.1452 46.6444 33.576Z" fill="#6C3D07"/>
<path id="Vector_18" d="M49.7486 29.9358C49.7486 30.3666 49.4011 30.7158 48.9725 30.7158C48.5439 30.7158 48.1965 30.3666 48.1965 29.9358C48.1965 29.505 48.5439 29.1558 48.9725 29.1558C49.4011 29.1558 49.7486 29.505 49.7486 29.9358Z" fill="#6C3D07"/>
<path id="Vector_19" d="M47.679 30.7158C47.679 31.003 47.4474 31.2359 47.1616 31.2359C46.8759 31.2359 46.6443 31.003 46.6443 30.7158C46.6443 30.4286 46.8759 30.1958 47.1616 30.1958C47.4474 30.1958 47.679 30.4286 47.679 30.7158Z" fill="#6C3D07"/>
<path id="Vector_20" d="M49.7486 27.5958C49.7486 27.883 49.517 28.1158 49.2313 28.1158C48.9455 28.1158 48.7139 27.883 48.7139 27.5958C48.7139 27.3085 48.9455 27.0757 49.2313 27.0757C49.517 27.0757 49.7486 27.3085 49.7486 27.5958Z" fill="#6C3D07"/>
<path id="Vector_21" d="M49.1881 32.4925C49.1881 32.9233 48.8406 33.2725 48.412 33.2725C47.9834 33.2725 47.636 32.9233 47.636 32.4925C47.636 32.0617 47.9834 31.7124 48.412 31.7124C48.8406 31.7124 49.1881 32.0617 49.1881 32.4925Z" fill="#6C3D07"/>
<path id="Vector_22" d="M48.1964 27.8558C48.1964 28.2866 47.849 28.6358 47.4204 28.6358C46.9918 28.6358 46.6443 28.2866 46.6443 27.8558C46.6443 27.4249 46.9918 27.0757 47.4204 27.0757C47.849 27.0757 48.1964 27.4249 48.1964 27.8558Z" fill="#6C3D07"/>
<path id="Vector_23" d="M49.2312 25.5156C49.2312 25.8028 48.9996 26.0357 48.7139 26.0357C48.4281 26.0357 48.1965 25.8028 48.1965 25.5156C48.1965 25.2284 48.4281 24.9956 48.7139 24.9956C48.9996 24.9956 49.2312 25.2284 49.2312 25.5156Z" fill="#6C3D07"/>
<path id="Vector_24" d="M44.618 36.9126C44.618 37.1998 44.3863 37.4326 44.1006 37.4326C43.8149 37.4326 43.5833 37.1998 43.5833 36.9126C43.5833 36.6254 43.8149 36.3926 44.1006 36.3926C44.3863 36.3926 44.618 36.6254 44.618 36.9126Z" fill="#6C3D07"/>
<path id="Vector_25" d="M33.6006 15.6729C33.6006 17.4836 36.7075 19.6987 40.0416 19.0901C43.0395 18.5429 44.1006 17.4836 44.1006 15.6729C44.1006 13.8623 42.456 11.9574 39.2091 12.1759C37.4623 12.1759 33.6006 13.8623 33.6006 15.6729Z" fill="#EAF0A0"/>
<path id="Vector_26" d="M41.2917 15.5927C41.2917 17.3295 38.9601 17.9312 35.6833 18.5279C32.6893 19.0731 30.7917 17.3295 30.7917 15.5927C30.7917 13.8559 32.4363 12.0286 35.6833 12.2382C37.43 12.2382 41.2917 13.8559 41.2917 15.5927Z" fill="#F5FBB7"/>
<path id="Vector_27" d="M40.5 12.1587C40.5 13.8935 39.1009 15.2998 37.375 15.2998C35.6491 15.2998 34.25 13.8935 34.25 12.1587C34.25 10.4239 35.6491 9.01758 37.375 9.01758C39.1009 9.01758 40.5 10.4239 40.5 12.1587Z" fill="#F40C6D"/>
<path id="Vector_28" d="M38.125 11.5515C38.125 12.4189 37.4255 13.1221 36.5625 13.1221C35.6995 13.1221 35 12.4189 35 11.5515C35 10.6841 35.6995 9.98096 36.5625 9.98096C37.4255 9.98096 38.125 10.6841 38.125 11.5515Z" fill="#FF6BA9"/>
</g>
</svg>
